<svg width="76" height="76" viewBox="0 0 76 76" fill="none" xmlns="http://www.w3.org/2000/svg">
<path d="M41.1665 26.9167H28.4998C22.3787 26.9167 17.4165 21.9545 17.4165 15.8333C17.4165 9.71217 22.3787 4.75 28.4998 4.75H41.1665V26.9167Z" fill="#E64A19"/>
<path d="M39.5832 49.0833H28.4998C22.3787 49.0833 17.4165 44.1212 17.4165 38C17.4165 31.8788 22.3787 26.9167 28.4998 26.9167H39.5832V49.0833Z" fill="#7C4DFF"/>
<path d="M28.4998 71.25C22.3787 71.25 17.4165 66.2878 17.4165 60.1667C17.4165 54.0455 22.3787 49.0833 28.4998 49.0833H39.5832V60.1667C39.5832 66.2878 34.621 71.25 28.4998 71.25Z" fill="#66BB6A"/>
<path d="M50.6668 26.9167H39.5835V4.75H50.6668C56.788 4.75 61.7502 9.71217 61.7502 15.8333C61.7502 21.9545 56.788 26.9167 50.6668 26.9167Z" fill="#FF7043"/>
<path d="M50.6668 49.0833C56.788 49.0833 61.7502 44.1212 61.7502 38C61.7502 31.8788 56.788 26.9167 50.6668 26.9167C44.5457 26.9167 39.5835 31.8788 39.5835 38C39.5835 44.1212 44.5457 49.0833 50.6668 49.0833Z" fill="#29B6F6"/>
</svg>
