<svg width="78" height="78" viewBox="0 0 78 78" fill="none" xmlns="http://www.w3.org/2000/svg">
<path d="M9.75 68.25V9.75H68.25V68.25H9.75Z" fill="#FFD600"/>
<path d="M47.9991 53.5389C49.1236 55.3654 50.3456 57.1155 52.9343 57.1155C55.1085 57.1155 56.2493 56.0349 56.2493 54.5399C56.2493 52.7508 55.0695 52.1154 52.6775 51.0738L51.3661 50.5148C47.5815 48.9093 45.0644 46.8975 45.0644 42.6481C45.0644 38.7319 48.0625 35.7516 52.7474 35.7516C56.0835 35.7516 58.4804 36.907 60.2094 39.9327L56.1241 42.5441C55.2255 40.9386 54.2538 40.3065 52.7474 40.3065C51.2101 40.3065 50.2368 41.2766 50.2368 42.5441C50.2368 44.1106 51.2118 44.7444 53.4624 45.7145L54.7738 46.2735C59.2344 48.1731 61.7499 50.1134 61.7499 54.4749C61.7499 59.1744 58.0384 61.75 53.0561 61.75C48.1828 61.75 45.4154 59.3044 43.8749 56.277L47.9991 53.5389ZM29.1719 53.6721C29.9941 55.1444 31.2438 56.277 33.041 56.277C34.7603 56.277 35.7499 55.5978 35.7499 52.9571V35.75H41.166V53.7891C41.166 59.2605 37.9924 61.75 33.3579 61.75C29.1703 61.75 26.1478 58.9128 24.916 56.277L29.1719 53.6721Z" fill="#000001"/>
</svg>
