<svg width="96" height="96" viewBox="0 0 96 96" fill="none" xmlns="http://www.w3.org/2000/svg">
<path d="M48.0939 9.99999C44.9839 10.01 42.8279 10.284 40.2219 10.734C32.5259 12.074 31.1239 14.888 31.1239 20.074V28H49.1239V32H30.4399H21.7399C16.4679 32 11.8539 34.484 10.3919 40.438C8.7399 47.272 8.6659 51.552 10.3919 58.688C11.7019 64.01 14.5879 68 19.8619 68H27.1259V57.792C27.1259 51.86 32.4979 46 38.6539 46H53.1259C58.1719 46 63.1259 42.276 63.1259 37.246V20.074C63.1259 15.196 59.6079 11.548 54.6899 10.73C54.8119 10.718 51.1779 9.98799 48.0939 9.99999ZM38.1259 18C39.7679 18 41.1259 19.354 41.1259 21.004C41.1259 22.67 39.7679 24 38.1259 24C36.4519 24 35.1259 22.672 35.1259 21.004C35.1259 19.36 36.4519 18 38.1259 18Z" fill="#0277BD"/>
<path d="M46.156 86C49.266 85.99 51.422 85.716 54.028 85.266C61.724 83.926 63.126 81.112 63.126 75.926V68H45.126V64H63.812H72.512C77.784 64 82.398 61.516 83.86 55.562C85.512 48.728 85.586 44.448 83.86 37.312C82.548 31.99 79.662 28 74.388 28H67.124V38.208C67.124 44.14 61.752 50 55.596 50H41.124C36.078 50 31.124 53.724 31.124 58.754V75.926C31.124 80.804 34.642 84.452 39.56 85.27C39.438 85.282 43.072 86.012 46.156 86ZM56.126 78C54.484 78 53.126 76.646 53.126 74.996C53.126 73.33 54.484 72 56.126 72C57.8 72 59.126 73.328 59.126 74.996C59.126 76.64 57.798 78 56.126 78Z" fill="#FFC107"/>
</svg>
