<svg width="76" height="76" viewBox="0 0 76 76" fill="none" xmlns="http://www.w3.org/2000/svg">
<path d="M38 15.2063C27.8667 15.2063 21.5333 20.2714 19 30.4016C22.8 25.3365 27.2333 23.4381 32.3 24.7032C35.1912 25.4252 37.2574 27.5231 39.5453 29.8442C43.2693 33.6237 47.5807 38 57 38C67.1333 38 73.4667 32.9349 76 22.8032C72.2 27.8682 67.7667 29.7682 62.7 28.5032C59.8104 27.7812 57.7442 25.6832 55.4563 23.3621C51.7307 19.5811 47.4177 15.2063 38 15.2063ZM19 38C8.86667 38 2.53333 43.0651 0 53.1968C3.8 48.1317 8.23333 46.2317 13.3 47.4984C16.1896 48.222 18.2558 50.3183 20.5438 52.6379C24.2693 56.4189 28.5823 60.7952 38 60.7952C48.1333 60.7952 54.4667 55.7302 57 45.5984C53.2 50.6635 48.7667 52.5635 43.7 51.2968C40.8088 50.5748 38.7426 48.4769 36.4547 46.1573C32.7307 42.3763 28.4193 38 19 38Z" fill="#00ACC1"/>
</svg>
