<svg width="76" height="76" viewBox="0 0 76 76" fill="none" xmlns="http://www.w3.org/2000/svg">
<path d="M67.0045 38.3147L71.2914 31.0531C71.4636 30.6909 71.4873 30.2753 71.3567 29.9012L62.8661 5.58125C62.6048 4.83906 61.827 4.4175 61.0729 4.60156L36.1176 10.6816C35.6426 10.8003 35.2507 11.1387 35.0667 11.5959L32.4126 18.24H24.3198C23.8982 18.24 23.4886 18.4181 23.2036 18.7269L4.96356 38.4869C4.3995 39.0984 4.42918 40.0484 5.02887 40.6184L24.1595 58.8584C24.4386 59.1316 24.8186 59.28 25.2045 59.28H33.9267L36.5867 65.9241C36.7826 66.4169 37.222 66.7672 37.7386 66.8562L64.2792 71.4162C64.3623 71.4341 64.4514 71.44 64.5345 71.44C65.2411 71.44 65.8645 70.9531 66.0189 70.2466L71.4042 45.5762C71.4873 45.1962 71.422 44.7984 71.2142 44.46L67.0045 38.3147ZM32.4126 18.24L53.8351 14.3153L42.5598 36.48H16.9751L32.4126 18.24ZM33.9326 59.28L16.9751 42.56H42.5598L55.8598 62.5753L33.9326 59.28ZM61.3876 59.1256L48.6398 39.52L59.7845 17.3553L67.0045 38.3206L61.3876 59.1256Z" fill="white"/>
</svg>
