<svg width="76" height="76" viewBox="0 0 76 76" fill="none" xmlns="http://www.w3.org/2000/svg">
<path d="M15.8332 19L20.5832 58.5833L7.88642 45.8866C6.00384 44.004 5.49876 41.1429 6.62609 38.7299L15.8332 19Z" fill="#1565C0"/>
<path d="M43.2552 10.0051C41.9173 8.66717 40.1044 7.91667 38.2139 7.91667C37.0343 7.91667 35.8722 8.20958 34.8335 8.7685L15.8335 19V51.2098C15.8335 52.8897 16.5001 54.4999 17.6892 55.6874L20.5835 58.5833H55.4168V50.6667L66.5002 33.25L43.2552 10.0051Z" fill="#42A5F5"/>
<path d="M15.8335 19H49.6266C51.3065 19 52.9167 19.6666 54.1042 20.8557L66.5002 33.25V58.5833H55.4168L15.8335 19Z" fill="#1565C0"/>
<path d="M55.4168 58.5833H20.5835L30.0835 68.0833H55.4168V58.5833Z" fill="#85CBF8"/>
</svg>
