<svg width="61" height="61" viewBox="0 0 61 61" fill="none" xmlns="http://www.w3.org/2000/svg">
<path d="M58.9 27.075L33.0917 1.26667C32.3 0.475 31.1917 0 30.0833 0C28.975 0 27.8667 0.475 27.075 1.26667L21.5333 6.80833L28.025 13.3C28.6583 12.9833 29.2917 12.825 30.0833 12.825C32.775 12.825 34.8333 14.8833 34.8333 17.575C34.8333 18.3667 34.675 19 34.3583 19.6333L40.6917 25.9667C41.325 25.65 41.9583 25.4917 42.75 25.4917C45.4417 25.4917 47.5 27.55 47.5 30.2417C47.5 32.9333 45.4417 34.9917 42.75 34.9917C40.0583 34.9917 38 32.9333 38 30.2417C38 29.45 38.1583 28.8167 38.475 28.1833L32.1417 21.85C31.9833 21.85 31.825 22.0083 31.6667 22.0083V38.475C33.5667 39.1083 34.8333 40.85 34.8333 42.9083C34.8333 45.6 32.775 47.6583 30.0833 47.6583C27.3917 47.6583 25.3333 45.6 25.3333 42.9083C25.3333 40.85 26.6 39.1083 28.5 38.475V21.85C26.6 21.2167 25.3333 19.475 25.3333 17.4167C25.3333 16.625 25.4917 15.9917 25.8083 15.3583L19.3167 8.86667L1.26667 27.075C0.475 27.8667 0 28.975 0 30.0833C0 31.1917 0.475 32.3 1.26667 33.0917L27.075 58.9C27.8667 59.6917 28.975 60.1667 30.0833 60.1667C31.1917 60.1667 32.3 59.6917 33.0917 58.9L58.9 33.0917C59.6917 32.3 60.1667 31.1917 60.1667 30.0833C60.1667 28.975 59.6917 27.8667 58.9 27.075Z" fill="#F4511E"/>
</svg>
