<svg width="76" height="76" viewBox="0 0 76 76" fill="none" xmlns="http://www.w3.org/2000/svg">
<path d="M37.4459 39.4218C35.8657 36.8743 34.7194 34.7621 33.1313 30.7847C30.446 24.0667 49.4634 17.9962 41.7526 6.33175C45.095 14.3893 29.7556 19.3705 28.3306 26.0807C27.0276 32.2525 37.438 39.4218 37.4459 39.4218Z" fill="#F44336"/>
<path d="M37.8067 27.3442C37.5027 31.3278 41.336 33.4511 41.4468 36.3612C41.5355 38.7299 39.1557 40.7043 39.1557 40.7043C39.1557 40.7043 43.475 39.8557 44.8225 36.2425C46.3187 32.2303 41.9186 29.4832 42.3715 26.2707C42.7942 23.2022 51.9205 17.4942 51.9205 17.4942C51.9205 17.4942 38.4923 18.3841 37.8067 27.3442Z" fill="#F44336"/>
<path d="M50.7996 39.6704C53.5768 39.0466 55.9185 40.8152 55.9185 42.8529C55.9185 47.4462 49.552 51.7877 49.552 51.7877C49.552 51.7877 59.4082 50.6128 59.4082 43.0714C59.4082 38.0839 54.568 36.8378 50.7996 39.6704ZM46.1209 43.3754C46.1209 43.3754 49.1941 41.1857 50.0127 40.3639C42.4713 41.9647 25.2525 42.18 25.2525 40.7898C25.2525 39.5089 30.8053 38.1963 30.8053 38.1963C30.8053 38.1963 18.498 38.019 18.498 41.6496C18.498 45.4338 34.6085 45.7045 46.1209 43.3754Z" fill="#1565C0"/>
<path d="M44.2306 46.8207C37.0913 49.1942 23.9418 48.4357 27.8368 45.2485C25.9399 45.2485 23.1279 46.7732 23.1279 48.2394C23.1279 51.1797 37.3494 53.4502 47.8754 49.1451L44.2306 46.8207Z" fill="#1565C0"/>
<path d="M29.5859 51.8367C26.9956 51.8367 25.3188 53.5056 25.3188 54.7216C25.3188 58.5073 40.7722 58.8889 46.8949 55.0462L43.0031 52.4622C38.4288 54.473 26.9386 54.7501 29.5859 51.8367Z" fill="#1565C0"/>
<path d="M57.4449 58.0007C57.4449 56.5187 55.7745 55.8204 55.176 55.4863C58.7037 63.9936 19.8408 63.3333 19.8408 58.311C19.8408 57.1694 22.7018 56.0516 25.346 56.5804L23.0977 55.252C17.8283 54.4255 14.25 56.7419 14.25 58.6103C14.25 67.3233 57.4449 66.9038 57.4449 58.0007Z" fill="#1565C0"/>
<path d="M61.7499 61.123C55.1854 67.6068 38.5398 69.9691 21.8008 65.9633C38.5398 73.093 61.6707 69.0777 61.7499 61.123Z" fill="#1565C0"/>
</svg>
