<svg width="119" height="119" viewBox="0 0 119 119" fill="none" xmlns="http://www.w3.org/2000/svg">
<g clip-path="url(#clip0_102_67)">
<path fill-rule="evenodd" clip-rule="evenodd" d="M65.496 17.9883C69.0014 12.8224 69.5704 9.3785 69.4165 8.30229C69.416 3.71705 64.9763 0 59.4995 0C54.0227 0 49.583 3.71708 49.583 8.30234V8.30555C49.431 9.38547 50.0023 12.8277 53.504 17.9883C57.0094 23.1542 51.2746 25.6756 47.9691 26.2906H58.8083H60.1917H71.0309C67.7254 25.6756 61.9906 23.1542 65.496 17.9883ZM92.7094 26.2907H26.2907V46.8167C25.6754 50.1227 23.1539 55.8561 17.9886 52.3507C12.8227 48.8453 9.37873 48.2763 8.30248 48.4302C3.71722 48.4302 0 52.8704 0 58.3472C0 63.824 3.71708 68.2637 8.30234 68.2637C9.37869 68.4176 12.8228 67.8486 17.9886 64.3432C23.1539 60.8378 25.6754 66.5712 26.2907 69.8772V92.7094H92.7094V69.6466C93.3244 66.3411 95.8461 60.6073 101.011 64.1122C106.177 67.6176 109.621 68.1865 110.697 68.0331C115.283 68.0331 119 63.5929 119 58.1162C119 52.6394 115.283 48.1996 110.698 48.1996H110.696C109.619 48.0462 106.175 48.6161 101.011 52.1201C95.8461 55.6255 93.3244 49.8917 92.7094 46.5862V26.2907ZM69.4165 110.698C69.5704 109.621 69.0014 106.178 65.496 101.011C61.9906 95.8457 67.7254 93.3244 71.0309 92.7094H60.1917H58.8083H47.9691C51.2746 93.3244 57.0094 95.8457 53.504 101.011C50.0023 106.172 49.431 109.614 49.583 110.695V110.698C49.583 115.283 54.0227 119 59.4995 119C64.9763 119 69.416 115.283 69.4165 110.698ZM52.6877 52.4716C53.6341 51.9705 54.4165 51.2737 55.0087 50.4546L66.839 54.7121C66.7669 55.8217 66.9663 56.9647 67.4735 58.0418C69.0725 61.4384 73.1222 62.8961 76.5189 61.2971C79.9159 59.698 81.3732 55.6483 79.7742 52.2517C78.1751 48.8546 74.1254 47.3973 70.7288 48.9964C69.6513 49.5035 68.769 50.257 68.1173 51.1584L56.2875 46.9013C56.36 45.7915 56.1601 44.6484 55.653 43.5709C54.0539 40.1742 50.0042 38.7167 46.6076 40.3157C46.5364 40.3491 46.4665 40.3835 46.3973 40.419C45.7467 40.7396 45.1368 41.1705 44.5955 41.7119C41.9408 44.3665 41.9408 48.6705 44.5955 51.3253C45.4376 52.1676 46.4457 52.7426 47.5145 53.0503V65.6229C46.4457 65.9306 45.4376 66.5057 44.5955 67.3475C41.9408 70.0022 41.9408 74.3067 44.5955 76.9609C47.25 79.6156 51.5544 79.6156 54.2087 76.9609C56.8634 74.3067 56.8634 70.0022 54.2087 67.3475C53.3669 66.5057 52.3595 65.9311 51.2909 65.6229V53.0498C51.772 52.9113 52.241 52.7184 52.6877 52.4716ZM52.3739 45.1142C53.1205 46.7005 52.44 48.5915 50.8539 49.3381C49.2674 50.0846 47.3764 49.4041 46.6299 47.818C45.8831 46.2319 46.5634 44.3407 48.1499 43.5941C49.736 42.8474 51.6269 43.528 52.3739 45.1142ZM75.1513 58.0004C76.7373 57.2539 77.4179 55.3624 76.6713 53.7764C75.9248 52.1903 74.0338 51.5098 72.4473 52.2563C70.8612 53.0029 70.1807 54.8943 70.9273 56.4804C71.6738 58.0664 73.5652 58.747 75.1513 58.0004ZM52.3237 71.0072C53.0703 72.5933 52.3898 74.4847 50.8037 75.2312C49.2172 75.9778 47.3262 75.2973 46.5797 73.7112C45.8329 72.1252 46.5137 70.2337 48.0997 69.4872C49.6858 68.7406 51.5767 69.4212 52.3237 71.0072Z" fill="url(#paint0_linear_102_67)"/>
</g>
<defs>
<linearGradient id="paint0_linear_102_67" x1="34.7587" y1="34.7586" x2="86.8491" y2="86.8486" gradientUnits="userSpaceOnUse">
<stop stop-color="#F03AB1"/>
<stop offset="1" stop-color="#B41DD5"/>
</linearGradient>
<clipPath id="clip0_102_67">
<rect width="119" height="119" fill="white"/>
</clipPath>
</defs>
</svg>
