<svg width="76" height="76" viewBox="0 0 76 76" fill="none" xmlns="http://www.w3.org/2000/svg">
<path d="M69.6669 17.5908V58.4092C69.6669 60.42 68.4161 62.2092 66.5319 62.8742L52.5669 69.4292L53.8336 52.25V23.75L52.5669 6.57083L66.5319 13.1258C68.4161 13.7908 69.6669 15.58 69.6669 17.5908Z" fill="#29B6F6"/>
<path d="M14.2501 53.6687L53.8334 23.75V8.47559C53.8334 6.57876 51.4869 5.69209 50.2313 7.11392L7.37524 46.2951C5.95024 47.6093 6.03099 49.8845 7.54466 51.0958C7.54466 51.0958 9.64099 53.0464 10.3994 53.5879C11.5647 54.4192 13.0958 54.5142 14.2501 53.6687Z" fill="#0277BD"/>
<path d="M14.2501 22.3313L53.8334 52.25V67.5244C53.8334 69.4213 51.4869 70.3079 50.2313 68.8861L7.37524 29.7049C5.95024 28.3908 6.03099 26.1155 7.54466 24.9043C7.54466 24.9043 9.64099 22.9536 10.3994 22.4121C11.5647 21.5808 13.0958 21.4858 14.2501 22.3313Z" fill="#0288D1"/>
</svg>
